<svg width="512" height="512" viewBox="0 0 512 512" fill="none" xmlns="http://www.w3.org/2000/svg">
<path d="M437.333 128H330.667C324.779 128 320 123.2 320 117.333V10.667C320 4.779 315.221 0 309.333 0H96C78.357 0 64 14.357 64 32V480C64 497.643 78.357 512 96 512H416C433.643 512 448 497.643 448 480V138.667C448 132.779 443.221 128 437.333 128ZM426.667 480C426.667 485.867 421.888 490.667 416 490.667H96C90.112 490.667 85.333 485.867 85.333 480V32C85.333 26.133 90.112 21.333 96 21.333H298.667V117.333C298.667 134.976 313.024 149.333 330.667 149.333H426.667V480V480Z" fill="#0D5798"/>
<path d="M444.864 131.136L316.864 3.13599C312.704 -1.02401 305.941 -1.02401 301.781 3.13599C297.621 7.29599 297.621 14.059 301.781 18.219L429.781 146.219C431.872 148.288 434.602 149.334 437.333 149.334C440.064 149.334 442.794 148.289 444.864 146.219C449.024 142.059 449.024 135.296 444.864 131.136Z" fill="#0D5798"/>
<rect x="138" y="242" width="235" height="19" fill="#0D5798"/>
<rect x="138" y="305" width="235" height="19" fill="#0D5798"/>
<path d="M138 368H373V387H138V368Z" fill="#0D5798"/>
<rect x="138" y="431" width="235" height="19" fill="#0D5798"/>
</svg>
